<?xml version="1.0" standalone="no"?>
<!DOCTYPE svg PUBLIC "-//W3C//DTD SVG 20010904//EN"
 "http://www.w3.org/TR/2001/REC-SVG-20010904/DTD/svg10.dtd">
<svg version="1.0" xmlns="http://www.w3.org/2000/svg"
 width="196.000000pt" height="196.000000pt" viewBox="0 0 196.000000 196.000000"
 preserveAspectRatio="xMidYMid meet">
<metadata>
Created by potrace 1.14, written by Peter Selinger 2001-2017
</metadata>
<g transform="translate(0.000000,196.000000) scale(0.100000,-0.100000)"
fill="#000000" stroke="none">
<path d="M0 980 l0 -980 283 1 c196 0 274 3 257 10 -13 6 -28 15 -32 22 -12
19 -9 1494 3 1547 35 153 171 286 349 342 112 35 274 32 385 -6 89 -31 132
-55 188 -104 l37 -34 0 -854 c0 -629 -3 -860 -12 -879 -6 -15 -24 -29 -42 -34
-20 -6 70 -10 257 -10 l287 -1 0 980 0 980 -980 0 -980 0 0 -980z"/>
<path d="M910 1798 c-114 -40 -202 -120 -236 -215 -9 -26 -13 -91 -14 -205 l0
-168 170 0 c157 0 172 -2 190 -20 25 -25 26 -72 2 -93 -16 -14 -45 -17 -190
-17 l-172 0 0 -505 c0 -363 -3 -511 -12 -530 -6 -15 -24 -29 -42 -34 -19 -6
120 -9 374 -9 223 1 395 3 384 5 -56 11 -54 -33 -56 879 l-3 839 -48 32 c-62
42 -104 54 -202 59 -65 4 -92 0 -145 -18z"/>
</g>
</svg>
